<svg xmlns="http://www.w3.org/2000/svg" xmlns:xlink="http://www.w3.org/1999/xlink" viewBox="0 0 259.56 295.49"><defs><style>.cls-1{isolation:isolate;}.cls-2{fill:#704f28;}.cls-3{fill:#563a1c;}.cls-4{fill:#897638;}.cls-5{fill:#9e853e;}.cls-6{fill:#75612a;}.cls-7{fill:#876e30;}.cls-8{fill:#bc9a46;}.cls-9{fill:#756330;}.cls-10{fill:#665222;}.cls-11{fill:#c9e237;}.cls-12{fill:#a5c130;}.cls-13{fill:#bcd335;}.cls-14{fill:#9caf2b;}.cls-15{fill:#d1e849;}.cls-16{fill:#634633;}.cls-17{opacity:0.6;fill:url(#linear-gradient);}.cls-17,.cls-18{mix-blend-mode:overlay;}.cls-19{fill:url(#linear-gradient-2);}.cls-20{fill:url(#linear-gradient-3);}.cls-21{fill:url(#linear-gradient-4);}.cls-22{fill:url(#linear-gradient-5);}</style><linearGradient id="linear-gradient" x1="75.83" y1="-0.52" x2="175.62" y2="190.85" gradientUnits="userSpaceOnUse"><stop offset="0" stop-color="#ffe49d"/><stop offset="1" stop-color="#6f003e"/></linearGradient><linearGradient id="linear-gradient-2" x1="20.63" y1="223.08" x2="123.66" y2="366.63" gradientUnits="userSpaceOnUse"><stop offset="0" stop-color="#d1e849"/><stop offset="1" stop-color="#9caf2b"/></linearGradient><linearGradient id="linear-gradient-3" x1="59.57" y1="195.13" x2="162.61" y2="338.68" xlink:href="#linear-gradient-2"/><linearGradient id="linear-gradient-4" x1="109.48" y1="159.31" x2="212.51" y2="302.86" xlink:href="#linear-gradient-2"/><linearGradient id="linear-gradient-5" x1="157.24" y1="125.03" x2="260.27" y2="268.58" xlink:href="#linear-gradient-2"/></defs><title>kiwi-ui-logo-v</title><g class="cls-1"><g id="Layer_2" data-name="Layer 2"><g id="Layer_1-2" data-name="Layer 1"><path class="cls-2" d="M70,19.68c.18-5.64-.88-7.93,9.61-17.76,0,0,5.44,6.39,3.48,14.8S70,19.68,70,19.68Z"/><path class="cls-2" d="M63.21,27.14C62.43,21.55,61,19.47,69.68,8c0,0,6.44,5.37,5.93,14S63.21,27.14,63.21,27.14Z"/><path class="cls-2" d="M84,20.16C81.15,15.28,79,13.89,82.71,0c0,0,8,2.53,10.8,10.7S84,20.16,84,20.16Z"/><path class="cls-2" d="M97.11,20.09c-4-4-5.57-5.24-5.61-19.61a18.74,18.74,0,0,1,12.38,8C108.69,15.67,97.11,20.09,97.11,20.09Z"/><path class="cls-2" d="M104.29,24.2c-3.05-4.75-3.73-6.78-.66-20.82a20.65,20.65,0,0,1,9.77,11C116.54,22.39,104.29,24.2,104.29,24.2Z"/><path class="cls-3" d="M103.45,25.69c-2.15-5.23-2.46-7.35,3.09-20.6a20.63,20.63,0,0,1,7.64,12.54C115.82,26.11,103.45,25.69,103.45,25.69Z"/><path class="cls-3" d="M98.34,23.75c-3-4.8-3.61-6.85-.3-20.83a20.67,20.67,0,0,1,9.58,11.14C110.62,22.15,98.34,23.75,98.34,23.75Z"/><path class="cls-3" d="M87.85,23.56c-3.26-4.61-3.58-7-1.13-21.21,0,0,8.41,4,11.91,11.92S87.85,23.56,87.85,23.56Z"/><path class="cls-3" d="M74.21,24.9c-1.56-5.43-.28-8.27,6.7-20.84,0,0,5.84,7,6.55,15.63S74.21,24.9,74.21,24.9Z"/><path class="cls-3" d="M68,31.74c-2.32-5.15-1.46-8.15,3.66-21.58,0,0,7.41,5.47,9.33,13.9S68,31.74,68,31.74Z"/><path class="cls-4" d="M99.29,156.43c-31.5,3.16-58.45-21.91-59.73-54.63C38,62.21,50.26,13.48,88.12,10.5c45.87-3.6,63.4,56.21,61.13,83.87S149.54,151.38,99.29,156.43Z"/><path class="cls-5" d="M89.6,131.64C65.56,134.06,45,114.92,44,90,42.83,59.74,52.7,17.78,81.59,15.51c35-2.75,47.87,47.67,46.13,68.78S128,127.79,89.6,131.64Z"/><path class="cls-6" d="M106,138c-31.5,3.17-58.45-21.9-59.73-54.62a156.53,156.53,0,0,1,4.4-44.3c-8.8,18-11.89,41.66-11.06,62.75,1.28,32.72,28.23,57.79,59.73,54.63,35.4-3.56,44.58-19.18,47.71-37.77C140.54,128.45,128.64,135.69,106,138Z"/><path class="cls-7" d="M57,135.12c19.85,10.21,37.13,13.27,65.28,11.62C122.26,146.74,81.59,167.93,57,135.12Z"/><path class="cls-8" d="M71.16,101.59c-8.29,1.65-15.87-2.11-17.34-12.78-2.4-17.34-.53-59.24,18.91-64.33C97.45,18,94.27,64.8,89.88,78.7,86.41,89.66,84.8,98.87,71.16,101.59Z"/><path class="cls-9" d="M103.9,104c6-34.83,25.92-62.22,51.43-58.7C186.2,49.51,227,72,219.14,113.71c-9.56,50.56-60.29,60.69-81,54.05S94.26,159.5,103.9,104Z"/><path class="cls-7" d="M154.72,53.44c13.8-6,71.08,12,56.39,54.68S130.46,64,154.72,53.44Z"/><path class="cls-10" d="M141.6,145.2c-18.55-6-39.17-7.9-36.23-48.42-.55,2.35-1.05,4.74-1.47,7.17-9.64,55.55,13.62,57.17,34.28,63.81s71.4-3.49,81-54a53.61,53.61,0,0,0,.9-12.8C206.21,143,160.86,151.39,141.6,145.2Z"/><path class="cls-11" d="M107.09,104.55c6.16-32.9,23.46-59,44.36-56,25.27,3.62,58.15,24.25,50.22,63.68-9.6,47.76-51.72,58-68.51,52S97.26,157,107.09,104.55Z"/><path class="cls-12" d="M109.12,104.79c5.85-31.23,22.28-56,42.11-53.15,24,3.43,55.21,23,47.69,60.45-9.12,45.35-49.11,55-65,49.36S99.79,154.61,109.12,104.79Z"/><path class="cls-13" d="M157.8,55.15c15.37,3.42,18.11,30.08-3.42,26.32S129.72,48.92,157.8,55.15Z"/><path class="cls-14" d="M148.91,128c-15.95-5.69-34.09-6.84-24.75-56.66.42-2.28.91-4.52,1.45-6.72-7.65,9.76-13.48,24.12-16.49,40.21-9.33,49.82,8.81,51,24.75,56.66s55.93-4,65-49.36c.15-.76.26-1.51.38-2.26C183.4,128.3,160.16,132,148.91,128Z"/><path class="cls-15" d="M143.33,129.22c-15.67,1.3-12.06-29.74,3.44-42.52S159.82,127.85,143.33,129.22Z"/><path class="cls-16" d="M152.19,132.1c.52-3.72-4.06-7.69-3.14.17S152,133.76,152.19,132.1Z"/><path class="cls-16" d="M158.44,124.2c-2-3.18-8.05-3.26-2.29,2.15S159.33,125.62,158.44,124.2Z"/><path class="cls-16" d="M164.22,107.31c-3.58-1.16-8.27,2.67-.38,3.12S165.81,107.83,164.22,107.31Z"/><path class="cls-16" d="M165.64,96.28c-3.76,0-7,5.1.61,3.09S167.32,96.28,165.64,96.28Z"/><path class="cls-16" d="M147.43,76.77c-.15,3.75,4.8,7.25,3.11-.47S147.5,75.09,147.43,76.77Z"/><path class="cls-16" d="M165.07,86.59c-3.09.76-6.84,6.77-.13,3.12S166.45,86.25,165.07,86.59Z"/><path class="cls-16" d="M159.07,78c-2.41,2.07-3,9.12,1.29,2.84S160.15,77.09,159.07,78Z"/><path class="cls-16" d="M132.08,91.18c2,2.5,9,3.44,2.88-1.17S131.19,90.06,132.08,91.18Z"/><path class="cls-16" d="M138.23,82.16c1,3,7.23,6.35,3.13-.08S137.8,80.81,138.23,82.16Z"/><path class="cls-16" d="M128.57,100.22c2.8,1.51,9.62-.43,2.19-2.23S127.32,99.55,128.57,100.22Z"/><path class="cls-16" d="M126.24,111c3.15.46,8.9-3.68,1.31-2.85S124.84,110.78,126.24,111Z"/><path class="cls-16" d="M125.34,119.43c3.14.47,8.89-3.68,1.3-2.85S123.93,119.22,125.34,119.43Z"/><path class="cls-16" d="M128.68,129.34c2.78-1.52,4.86-8.3-.69-3S127.43,130,128.68,129.34Z"/><path class="cls-16" d="M135.59,136c1.71-2.68.27-9.62-2.07-2.35S134.82,137.15,135.59,136Z"/><path class="cls-16" d="M144.46,138.52c.79-3.08-2.74-9.23-2.69-1.59S144.1,139.89,144.46,138.52Z"/><path class="cls-16" d="M163,116.06c-2.9-2.39-8.67-.54-1.49,2.76S164.25,117.12,163,116.06Z"/><polygon class="cls-15" points="139 126.92 132.59 155.11 141.56 126.66 139 126.92"/><polygon class="cls-15" points="142.64 126.46 152.03 153.8 144.68 124.89 142.64 126.46"/><polygon class="cls-15" points="148.54 123.11 168.5 144.03 149.74 120.83 148.54 123.11"/><polygon class="cls-15" points="152.02 117.93 176.98 132.53 152.54 115.41 152.02 117.93"/><polygon class="cls-15" points="152.91 104.66 183.76 104.22 152.17 102.2 152.91 104.66"/><polygon class="cls-15" points="152.42 99.6 179.65 85.09 150.64 97.75 152.42 99.6"/><polygon class="cls-15" points="151.65 95.07 172.72 72.53 149.37 93.9 151.65 95.07"/><polygon class="cls-15" points="152.51 91.33 158.29 61.03 149.96 91.56 152.51 91.33"/><polygon class="cls-15" points="153.74 95.75 139.45 68.4 151.88 97.52 153.74 95.75"/><polygon class="cls-15" points="151.58 98.99 128.56 78.45 150.47 101.31 151.58 98.99"/><polygon class="cls-15" points="149.37 101.47 120.69 90.09 149.11 104.02 149.37 101.47"/><polygon class="cls-15" points="145.64 106.23 115.12 101.74 145.97 108.78 145.64 106.23"/><polygon class="cls-15" points="143.8 109.81 113.55 115.85 144.98 112.1 143.8 109.81"/><polygon class="cls-15" points="144.74 113.53 117.16 127.39 146.48 115.42 144.74 113.53"/><polygon class="cls-15" points="144.37 113.9 124.61 137.61 146.72 114.94 144.37 113.9"/><path class="cls-17" d="M220,106.9c.06-.89.08-1.76.1-2.63v-.44c.27-35.41-36.44-54.67-64.77-58.58A31.09,31.09,0,0,0,139.86,47c-5.8-12.8-14.36-24.39-26-31a7.09,7.09,0,0,0-.43-1.67,21.07,21.07,0,0,0-2.5-4.61,18.78,18.78,0,0,0-4.36-4.65.36.36,0,0,1,0,.09,15.51,15.51,0,0,0-2.87-1.8c-.25,1.18-.48,2.25-.68,3.26A18.85,18.85,0,0,0,98,2.92h0A17.93,17.93,0,0,0,91.5.48c0,1.91,0,3.58.1,5.07a30.44,30.44,0,0,0-3.34-2.34A18.63,18.63,0,0,0,82.71,0c-.49,1.85-.87,3.46-1.16,4.9l-.33-.44a16.08,16.08,0,0,0-1.66-2.54A47,47,0,0,0,72,10.39l-.22-.18a15.48,15.48,0,0,0-2-2.2c-5.67,7.49-7,11-7.06,14.05a60.15,60.15,0,0,0-12,17h0q-1.63,3.35-3,7c-.05.14-.1.29-.16.44-.39,1-.77,2.07-1.13,3.12-.1.3-.19.6-.29.9-.3.91-.6,1.83-.88,2.76-.11.38-.21.76-.32,1.13-.25.87-.5,1.73-.73,2.61-.11.42-.21.85-.32,1.28-.22.84-.42,1.68-.62,2.52-.1.47-.2.93-.31,1.39-.17.83-.35,1.65-.51,2.48-.1.49-.19,1-.28,1.46-.16.82-.3,1.64-.44,2.46-.09.5-.17,1-.25,1.51-.13.82-.25,1.63-.36,2.44-.08.52-.15,1-.22,1.56-.1.8-.2,1.61-.29,2.42l-.18,1.58c-.08.81-.15,1.61-.23,2.42C40,81,40,81.54,40,82.07c-.07.81-.12,1.61-.17,2.42,0,.53-.07,1.05-.1,1.58,0,.82-.08,1.63-.11,2.44l-.06,1.55c0,.84,0,1.68,0,2.52l0,1.43c0,.91,0,1.81,0,2.72,0,.4,0,.8,0,1.2,0,1.3.06,2.59.11,3.87,1.28,32.72,28.23,57.79,59.73,54.63,1.4-.14,2.75-.31,4.07-.49l1.07-.15c1.07-.15,2.11-.32,3.12-.5l.74-.13c.67-.12,1.31-.25,1.95-.38,7.19,7.68,17.87,9.74,27.94,13,20.67,6.64,71.4-3.49,81-54,.23-1.19.41-2.37.55-3.53.09-.67.14-1.32.2-2C219.92,107.77,220,107.33,220,106.9Z"/><g class="cls-18"><path class="cls-19" d="M54.78,295.49,21.43,254.16h-.25v41.33H0V205.72H21.18v36.52h.38l32.08-36.52H80.77L42.1,247.06l41,48.43Z"/><path class="cls-20" d="M111.59,212.18a10.85,10.85,0,0,1-1,4.51,11.66,11.66,0,0,1-2.54,3.61,11.86,11.86,0,0,1-3.8,2.41,12.42,12.42,0,0,1-4.63.89,11.66,11.66,0,0,1-8.5-3.36,11.2,11.2,0,0,1-2.53-12.43,10.22,10.22,0,0,1,2.53-3.61A13.76,13.76,0,0,1,95,201.72a11.53,11.53,0,0,1,4.69-.95,12.42,12.42,0,0,1,4.63.89,11.86,11.86,0,0,1,3.8,2.41,11.66,11.66,0,0,1,2.54,3.61A10.84,10.84,0,0,1,111.59,212.18ZM89.27,295.49V232.35h20.8v63.14Z"/><path class="cls-21" d="M206.94,295.49H186l-12.43-39.3h-.25l-12.17,39.3H140.24l-21.81-63.14h22.45l10.9,39.94h.38l11.29-39.94h20.92L196,272.29h.25l11-39.94h21.56Z"/><path class="cls-22" d="M259.56,212.18a10.7,10.7,0,0,1-.95,4.51,11.63,11.63,0,0,1-2.53,3.61,11.79,11.79,0,0,1-3.81,2.41,12.38,12.38,0,0,1-4.63.89,11.64,11.64,0,0,1-8.49-3.36,10.91,10.91,0,0,1-3.43-8.06,11.09,11.09,0,0,1,.89-4.37,10.24,10.24,0,0,1,2.54-3.61,13.71,13.71,0,0,1,3.8-2.48,11.56,11.56,0,0,1,4.69-.95,12.38,12.38,0,0,1,4.63.89,11.79,11.79,0,0,1,3.81,2.41,11.63,11.63,0,0,1,2.53,3.61A10.69,10.69,0,0,1,259.56,212.18Zm-22.31,83.31V232.35H258v63.14Z"/></g></g></g></g></svg>