<svg xmlns="http://www.w3.org/2000/svg" xmlns:xlink="http://www.w3.org/1999/xlink" viewBox="0 0 437.46 132.17"><defs><style>.cls-1{isolation:isolate;}.cls-2{fill:#704f28;}.cls-3{fill:#563a1c;}.cls-4{fill:#897638;}.cls-5{fill:#9e853e;}.cls-6{fill:#75612a;}.cls-7{fill:#876e30;}.cls-8{fill:#bc9a46;}.cls-9{fill:#756330;}.cls-10{fill:#665222;}.cls-11{fill:#c9e237;}.cls-12{fill:#a5c130;}.cls-13{fill:#bcd335;}.cls-14{fill:#9caf2b;}.cls-15{fill:#d1e849;}.cls-16{fill:#634633;}.cls-17{opacity:0.6;fill:url(#linear-gradient);}.cls-17,.cls-18{mix-blend-mode:overlay;}.cls-19{fill:url(#linear-gradient-2);}.cls-20{fill:url(#linear-gradient-3);}.cls-21{fill:url(#linear-gradient-4);}.cls-22{fill:url(#linear-gradient-5);}</style><linearGradient id="linear-gradient" x1="28.37" y1="-0.41" x2="106.15" y2="148.75" gradientUnits="userSpaceOnUse"><stop offset="0" stop-color="#ffe49d"/><stop offset="1" stop-color="#6f003e"/></linearGradient><linearGradient id="linear-gradient-2" x1="198.53" y1="41.03" x2="301.56" y2="184.58" gradientUnits="userSpaceOnUse"><stop offset="0" stop-color="#d1e849"/><stop offset="1" stop-color="#9caf2b"/></linearGradient><linearGradient id="linear-gradient-3" x1="237.47" y1="13.08" x2="340.51" y2="156.63" xlink:href="#linear-gradient-2"/><linearGradient id="linear-gradient-4" x1="287.38" y1="-22.74" x2="390.41" y2="120.81" xlink:href="#linear-gradient-2"/><linearGradient id="linear-gradient-5" x1="335.14" y1="-57.02" x2="438.17" y2="86.53" xlink:href="#linear-gradient-2"/></defs><title>kiwi-ui-logo-h</title><g class="cls-1"><g id="Layer_2" data-name="Layer 2"><g id="Layer_1-2" data-name="Layer 1"><path class="cls-2" d="M23.79,15.34c.14-4.4-.68-6.18,7.49-13.85A14.13,14.13,0,0,1,34,13C32.46,19.58,23.79,15.34,23.79,15.34Z"/><path class="cls-2" d="M18.53,21.15c-.6-4.35-1.71-6,5-14.91A14.12,14.12,0,0,1,28.2,17.15C27.8,23.87,18.53,21.15,18.53,21.15Z"/><path class="cls-2" d="M34.73,15.71c-2.21-3.8-3.86-4.88-1-15.71a14.11,14.11,0,0,1,8.42,8.34C44.33,14.71,34.73,15.71,34.73,15.71Z"/><path class="cls-2" d="M45,15.66c-3.12-3.1-4.35-4.09-4.37-15.29a14.57,14.57,0,0,1,9.64,6.25C54,12.22,45,15.66,45,15.66Z"/><path class="cls-2" d="M50.55,18.86c-2.37-3.7-2.91-5.29-.51-16.23a16.09,16.09,0,0,1,7.61,8.55C60.1,17.45,50.55,18.86,50.55,18.86Z"/><path class="cls-3" d="M49.9,20C48.23,16,48,14.3,52.31,4a16,16,0,0,1,5.95,9.77C59.54,20.35,49.9,20,49.9,20Z"/><path class="cls-3" d="M45.92,18.51c-2.31-3.74-2.82-5.34-.23-16.23A16,16,0,0,1,53.15,11C55.49,17.27,45.92,18.51,45.92,18.51Z"/><path class="cls-3" d="M37.74,18.36C35.2,14.77,35,12.87,36.86,1.84c0,0,6.56,3.13,9.29,9.28S37.74,18.36,37.74,18.36Z"/><path class="cls-3" d="M27.11,19.41C25.9,15.18,26.89,13,32.33,3.17c0,0,4.56,5.46,5.1,12.17S27.11,19.41,27.11,19.41Z"/><path class="cls-3" d="M22.27,24.74c-1.81-4-1.14-6.35,2.85-16.82,0,0,5.78,4.26,7.28,10.83S22.27,24.74,22.27,24.74Z"/><path class="cls-4" d="M46.66,121.92C22.11,124.39,1.1,104.85.1,79.34-1.11,48.49,8.44,10.51,38,8.18,73.7,5.37,87.37,52,85.6,73.56S85.82,118,46.66,121.92Z"/><path class="cls-5" d="M39.1,102.6c-18.73,1.89-34.77-13-35.53-32.49-.92-23.55,6.77-56.25,29.29-58,27.28-2.14,37.31,37.15,36,53.6S69,99.6,39.1,102.6Z"/><path class="cls-6" d="M51.85,107.54C27.3,110,6.29,90.46,5.29,65A121.75,121.75,0,0,1,8.72,30.44C1.87,44.45-.54,62.91.1,79.34c1,25.51,22,45.05,46.56,42.58C74.25,119.15,81.4,107,83.85,92.49,78.81,100.12,69.53,105.76,51.85,107.54Z"/><path class="cls-7" d="M13.68,105.31c15.47,8,28.94,10.35,50.88,9.06C64.56,114.37,32.86,130.88,13.68,105.31Z"/><path class="cls-8" d="M24.73,79.18c-6.46,1.29-12.36-1.64-13.52-10C9.35,55.71,10.8,23.05,26,19.08,45.22,14,42.75,50.5,39.32,61.34,36.62,69.88,35.36,77.06,24.73,79.18Z"/><path class="cls-9" d="M50.25,81C55,53.87,70.45,32.52,90.34,35.27c24,3.32,55.89,20.83,49.73,53.36-7.45,39.41-47,47.3-63.1,42.12S42.74,124.32,50.25,81Z"/><path class="cls-7" d="M89.86,41.66c10.75-4.7,55.4,9.32,44,42.61S71,49.91,89.86,41.66Z"/><path class="cls-10" d="M79.64,113.17C65.18,108.53,49.1,107,51.4,75.43c-.43,1.83-.82,3.69-1.15,5.59-7.51,43.3,10.62,44.56,26.72,49.73s55.65-2.71,63.1-42.12a41.1,41.1,0,0,0,.7-10C130,111.46,94.65,118,79.64,113.17Z"/><path class="cls-11" d="M52.74,81.49c4.8-25.64,18.29-46,34.57-43.64,19.7,2.82,45.32,18.9,39.15,49.63C119,124.71,86.14,132.67,73.06,128S45.08,122.39,52.74,81.49Z"/><path class="cls-12" d="M54.32,81.68C58.88,57.33,71.68,38,87.14,40.25c18.71,2.67,43,17.94,37.17,47.12-7.1,35.34-38.27,42.9-50.7,38.47S47.05,120.51,54.32,81.68Z"/><path class="cls-13" d="M92.26,43c12,2.66,14.12,23.44-2.66,20.51S70.38,38.13,92.26,43Z"/><path class="cls-14" d="M85.33,99.73C72.9,95.3,58.77,94.4,66,55.57q.49-2.66,1.13-5.24c-6,7.61-10.5,18.8-12.85,31.35-7.27,38.83,6.87,39.73,19.29,44.16s43.6-3.13,50.7-38.47c.12-.6.21-1.18.3-1.76C112.22,100,94.1,102.86,85.33,99.73Z"/><path class="cls-15" d="M81,100.72c-12.22,1-9.41-23.19,2.67-33.14S93.83,99.65,81,100.72Z"/><path class="cls-16" d="M87.89,103c.41-2.9-3.17-6-2.45.13S87.71,104.26,87.89,103Z"/><path class="cls-16" d="M92.76,96.8c-1.55-2.48-6.27-2.54-1.79,1.68S93.46,97.91,92.76,96.8Z"/><path class="cls-16" d="M97.26,83.64c-2.78-.9-6.44,2.08-.29,2.43S98.51,84,97.26,83.64Z"/><path class="cls-16" d="M98.37,75.05c-2.92,0-5.48,4,.47,2.4S99.68,75.05,98.37,75.05Z"/><path class="cls-16" d="M84.18,59.84c-.12,2.92,3.74,5.65,2.43-.37S84.24,58.53,84.18,59.84Z"/><path class="cls-16" d="M97.93,67.49c-2.41.59-5.33,5.27-.11,2.43S99,67.23,97.93,67.49Z"/><path class="cls-16" d="M93.25,60.81c-1.88,1.61-2.38,7.11,1,2.21S94.1,60.09,93.25,60.81Z"/><path class="cls-16" d="M72.21,71.07c1.55,1.94,7,2.68,2.25-.91S71.52,70.19,72.21,71.07Z"/><path class="cls-16" d="M77,64c.76,2.36,5.64,4.95,2.43-.07S76.67,63,77,64Z"/><path class="cls-16" d="M69.48,78.12c2.18,1.17,7.49-.34,1.71-1.74S68.5,77.59,69.48,78.12Z"/><path class="cls-16" d="M67.67,86.51c2.45.37,6.93-2.86,1-2.21S66.57,86.35,67.67,86.51Z"/><path class="cls-16" d="M67,93.08c2.45.37,6.93-2.86,1-2.21S65.87,92.92,67,93.08Z"/><path class="cls-16" d="M69.56,100.81c2.18-1.19,3.8-6.47-.53-2.38S68.59,101.34,69.56,100.81Z"/><path class="cls-16" d="M75,106c1.33-2.09.21-7.5-1.61-1.83S74.35,106.9,75,106Z"/><path class="cls-16" d="M81.86,108c.62-2.4-2.13-7.18-2.09-1.23S81.59,109,81.86,108Z"/><path class="cls-16" d="M96.28,90.46C94,88.6,89.52,90,95.12,92.61S97.29,91.29,96.28,90.46Z"/><polygon class="cls-15" points="77.61 98.92 72.61 120.9 79.61 98.72 77.61 98.92"/><polygon class="cls-15" points="80.44 98.56 87.77 119.88 82.04 97.34 80.44 98.56"/><polygon class="cls-15" points="85.04 95.95 100.6 112.26 85.98 94.18 85.04 95.95"/><polygon class="cls-15" points="87.75 91.92 107.21 103.3 88.17 89.95 87.75 91.92"/><polygon class="cls-15" points="88.45 81.57 112.5 81.23 87.87 79.66 88.45 81.57"/><polygon class="cls-15" points="88.07 77.63 109.29 66.32 86.68 76.19 88.07 77.63"/><polygon class="cls-15" points="87.47 74.1 103.89 56.53 85.69 73.19 87.47 74.1"/><polygon class="cls-15" points="88.14 71.19 92.64 47.56 86.15 71.37 88.14 71.19"/><polygon class="cls-15" points="89.1 74.63 77.96 53.31 87.65 76.01 89.1 74.63"/><polygon class="cls-15" points="87.42 77.16 69.47 61.15 86.54 78.96 87.42 77.16"/><polygon class="cls-15" points="85.69 79.08 63.34 70.22 85.49 81.08 85.69 79.08"/><polygon class="cls-15" points="82.78 82.8 58.99 79.3 83.04 84.79 82.78 82.8"/><polygon class="cls-15" points="81.35 85.59 57.77 90.3 82.27 87.37 81.35 85.59"/><polygon class="cls-15" points="82.08 88.49 60.59 99.29 83.44 89.96 82.08 88.49"/><polygon class="cls-15" points="81.8 88.78 66.39 107.26 83.63 89.59 81.8 88.78"/><path class="cls-17" d="M140.74,83.32c0-.69.07-1.37.08-2v-.34c.21-27.6-28.4-42.61-50.48-45.66a24.23,24.23,0,0,0-12.06,1.36c-4.52-10-11.2-19-20.29-24.14a5.52,5.52,0,0,0-.34-1.31,16.64,16.64,0,0,0-1.94-3.59A14.54,14.54,0,0,0,52.31,4l0,.07A12.6,12.6,0,0,0,50,2.63c-.2.92-.37,1.75-.53,2.55a14.59,14.59,0,0,0-3.82-2.9h0A14.09,14.09,0,0,0,40.59.37c0,1.5,0,2.8.08,4A25.15,25.15,0,0,0,38.06,2.5,14.51,14.51,0,0,0,33.73,0c-.38,1.44-.67,2.69-.9,3.82l-.26-.35a13.21,13.21,0,0,0-1.29-2A37.32,37.32,0,0,0,25.35,8.1L25.18,8a13.15,13.15,0,0,0-1.6-1.72c-4.42,5.84-5.47,8.55-5.5,11A46.83,46.83,0,0,0,8.72,30.44h0C7.87,32.18,7.09,34,6.37,35.85c0,.11-.08.23-.13.35q-.45,1.2-.87,2.43c-.08.23-.15.47-.23.7-.23.71-.47,1.43-.69,2.15-.08.29-.16.59-.25.88-.19.68-.39,1.35-.56,2-.09.33-.17.66-.26,1l-.48,2-.24,1.08c-.14.65-.27,1.29-.4,1.94-.08.38-.15.75-.22,1.13-.12.64-.23,1.28-.34,1.92-.07.39-.13.78-.19,1.18-.1.63-.2,1.26-.29,1.9-.05.4-.11.81-.16,1.21C1,58.35.9,59,.83,59.61c0,.41-.1.82-.14,1.23L.51,62.73c0,.41-.07.82-.11,1.24,0,.62-.09,1.25-.13,1.88,0,.41-.05.83-.07,1.24,0,.63-.06,1.26-.09,1.9,0,.4,0,.8,0,1.2,0,.66,0,1.32,0,2,0,.37,0,.74,0,1.11,0,.71,0,1.42,0,2.12,0,.32,0,.63,0,.94,0,1,0,2,.08,3,1,25.51,22,45.05,46.56,42.58,1.09-.11,2.14-.24,3.17-.38l.84-.11q1.24-.18,2.43-.39l.58-.1,1.51-.3c5.61,6,13.93,7.59,21.78,10.11,16.11,5.18,55.65-2.71,63.1-42.12.18-.93.32-1.85.43-2.75.07-.52.11-1,.15-1.54C140.68,84,140.72,83.66,140.74,83.32Z"/><g class="cls-18"><path class="cls-19" d="M232.68,113.45,199.33,72.11h-.25v41.34H177.9V23.67h21.18V60.19h.38l32.08-36.52h27.13L220,65l41,48.44Z"/><path class="cls-20" d="M289.49,30.14a10.84,10.84,0,0,1-.95,4.5,11.43,11.43,0,0,1-6.34,6,12.42,12.42,0,0,1-4.63.89,11.67,11.67,0,0,1-8.5-3.36,10.88,10.88,0,0,1-3.42-8,11,11,0,0,1,.89-4.38,10.31,10.31,0,0,1,2.53-3.61,13.51,13.51,0,0,1,3.81-2.47,11.37,11.37,0,0,1,4.69-1,12.42,12.42,0,0,1,4.63.89A11.86,11.86,0,0,1,286,22a11.7,11.7,0,0,1,2.54,3.62A10.78,10.78,0,0,1,289.49,30.14Zm-22.32,83.31V50.3H288v63.15Z"/><path class="cls-21" d="M384.84,113.45H363.92L351.49,74.14h-.25l-12.17,39.31H318.14L296.33,50.3h22.45l10.9,39.94h.38L341.35,50.3h20.92l11.67,39.94h.25l11-39.94h21.56Z"/><path class="cls-22" d="M437.46,30.14a10.69,10.69,0,0,1-.95,4.5,11.35,11.35,0,0,1-6.34,6,12.38,12.38,0,0,1-4.63.89,11.64,11.64,0,0,1-8.49-3.36,10.88,10.88,0,0,1-3.42-8,11.16,11.16,0,0,1,.88-4.38,10.33,10.33,0,0,1,2.54-3.61,13.46,13.46,0,0,1,3.8-2.47,11.41,11.41,0,0,1,4.69-1,12.38,12.38,0,0,1,4.63.89A11.79,11.79,0,0,1,434,22a11.67,11.67,0,0,1,2.53,3.62A10.62,10.62,0,0,1,437.46,30.14Zm-22.31,83.31V50.3h20.79v63.15Z"/></g></g></g></g></svg>